HIERARCHY
ROOT Hips
{
 OFFSET 0.000000 0.000000 0.000000
 CHANNELS 6 Xposition Yposition Zposition Yrotation Xrotation Zrotation
 JOINT Chest
 {
  OFFSET 0.000000 9.585900 0.002600
  CHANNELS 3 Yrotation Xrotation Zrotation
  JOINT Chest2
  {
   OFFSET 0.000000 9.601200 -0.005300
   CHANNELS 3 Yrotation Xrotation Zrotation
   JOINT Chest3
   {
    OFFSET 0.000000 9.561800 0.000000
    CHANNELS 3 Yrotation Xrotation Zrotation
    JOINT Chest4
    {
     OFFSET 0.000000 9.552100 0.000000
     CHANNELS 3 Yrotation Xrotation Zrotation
     JOINT Neck
     {
      OFFSET 0.000000 14.453000 0.000000
      CHANNELS 3 Yrotation Xrotation Zrotation
      JOINT Head
      {
       OFFSET 0.000000 8.936500 -0.011300
       CHANNELS 3 Yrotation Xrotation Zrotation
       End Site
       {
        OFFSET 0.000000 17.073600 -0.006000
       }
      }
     }
     JOINT RightCollar
     {
      OFFSET -2.921100 9.558500 0.000000
      CHANNELS 3 Yrotation Xrotation Zrotation
      JOINT RightShoulder
      {
       OFFSET -13.519700 0.000000 0.000000
       CHANNELS 3 Yrotation Xrotation Zrotation
       JOINT RightElbow
       {
        OFFSET 0.000000 -29.696600 0.000000
        CHANNELS 3 Yrotation Xrotation Zrotation
        JOINT RightWrist
        {
         OFFSET 0.000000 -24.004700 0.000000
         CHANNELS 3 Yrotation Xrotation Zrotation
         End Site
         {
          OFFSET 0.000000 -17.728500 0.000000
         }
        }
       }
      }
     }
     JOINT LeftCollar
     {
      OFFSET 2.921100 9.558500 0.000000
      CHANNELS 3 Yrotation Xrotation Zrotation
      JOINT LeftShoulder
      {
       OFFSET 13.519700 0.000000 0.000000
       CHANNELS 3 Yrotation Xrotation Zrotation
       JOINT LeftElbow
       {
        OFFSET 0.000000 -29.696600 0.000000
        CHANNELS 3 Yrotation Xrotation Zrotation
        JOINT LeftWrist
        {
         OFFSET 0.000000 -24.004700 0.000000
         CHANNELS 3 Yrotation Xrotation Zrotation
         End Site
         {
          OFFSET 0.000000 -17.728500 0.000000
         }
        }
       }
      }
     }
    }
   }
  }
 }
 JOINT RightHip
 {
  OFFSET -7.771700 -0.012900 -0.001300
  CHANNELS 3 Yrotation Xrotation Zrotation
  JOINT RightKnee
  {
   OFFSET 0.000000 -40.869800 0.001200
   CHANNELS 3 Yrotation Xrotation Zrotation
   JOINT RightAnkle
   {
    OFFSET 0.000000 -39.717900 0.002100
    CHANNELS 3 Yrotation Xrotation Zrotation
    JOINT RightToe
    {
     OFFSET 0.000000 -4.965400 11.033500
     CHANNELS 3 Yrotation Xrotation Zrotation
     End Site
     {
      OFFSET 0.000000 -1.423100 5.872300
     }
    }
   }
  }
 }
 JOINT LeftHip
 {
  OFFSET 7.771700 -0.012900 -0.001300
  CHANNELS 3 Yrotation Xrotation Zrotation
  JOINT LeftKnee
  {
   OFFSET 0.000000 -40.869800 0.001200
   CHANNELS 3 Yrotation Xrotation Zrotation
   JOINT LeftAnkle
   {
    OFFSET 0.000000 -39.717900 0.002100
    CHANNELS 3 Yrotation Xrotation Zrotation
    JOINT LeftToe
    {
     OFFSET 0.000000 -4.965400 11.033500
     CHANNELS 3 Yrotation Xrotation Zrotation
     End Site
     {
      OFFSET 0.000000 -1.423100 5.872300
     }
    }
   }
  }
 }
}
MOTION
Frames: 9
Frame Time: 0.008333
-6.856991 51.053422 24.374356 179.842654 -34.046228 -10.001195 -0.601221 11.906919 2.963680 -0.433791 6.861174 1.721656 -0.501998 8.580752 2.153633 -0.423099 6.835826 1.712299 5.827966 21.570028 -0.406029 6.415162 -2.512095 -1.779111 0.253821 2.096318 -2.082749 -15.118397 -5.601188 5.567230 1.567679 -71.871694 14.918261 10.290741 -7.337269 -10.737118 -8.510521 3.336863 -3.613471 7.100856 0.861238 -1.278285 -78.297824 -68.741159 86.665722 10.908281 -12.574120 -9.216590 -12.156156 -31.843014 6.129355 17.730528 82.605035 14.607056 -0.981857 -8.786907 -0.351567 -0.065957 -5.815705 1.123828 -14.088805 -45.860897 13.419415 172.707225 77.580806 168.569264 -1.597840 -18.429842 0.608782 0.006055 -0.010966 0.005177
-6.846537 51.048175 24.380799 179.822682 -34.021390 -9.980624 -0.607031 11.938873 2.977278 -0.432489 6.888635 1.738150 -0.491862 8.574067 2.154823 -0.416618 6.843732 1.719855 5.864999 21.563033 -0.443646 6.465343 -2.516458 -1.828681 0.247560 2.045890 -2.111515 -15.147186 -5.534578 5.584293 1.536394 -71.902092 14.987152 10.280552 -7.340332 -10.753378 -8.512429 3.313806 -3.615036 7.113620 0.853053 -1.270452 -78.070504 -68.714721 86.439391 10.899381 -12.602355 -9.273306 -12.053026 -31.602555 5.899637 16.948097 82.567218 13.828375 -0.892214 -9.506480 0.786611 -0.025611 -5.253382 0.233334 -14.081491 -45.891074 13.428602 172.565045 77.585273 168.436543 -1.631038 -18.411344 0.601453 0.005846 -0.012839 0.001861
-6.837955 51.040402 24.391610 179.767049 -33.970974 -9.930587 -0.608934 12.007939 3.007104 -0.409936 6.851120 1.727261 -0.480756 8.565468 2.155133 -0.410015 6.851106 1.727245 5.904279 21.557597 -0.480454 6.517880 -2.518733 -1.877906 0.248789 2.053278 -2.107910 -15.171081 -5.595169 5.568126 1.461398 -71.887667 15.078026 10.254339 -7.329420 -10.768399 -8.516442 3.291262 -3.612387 7.132746 0.842791 -1.267721 -78.012854 -68.725880 86.359312 10.853786 -12.564477 -9.321003 -11.959118 -31.402856 5.656041 16.336918 82.542930 13.282610 -0.784962 -10.345714 1.611042 -0.008491 -4.041539 -0.421044 -14.045301 -45.952983 13.438441 172.442286 77.592552 168.318637 -1.666588 -18.392690 0.601661 0.003306 -0.012919 -0.001315
-6.830957 51.033934 24.401520 179.724198 -33.925608 -9.878921 -0.595046 12.020719 3.007868 -0.404181 6.857333 1.734211 -0.473338 8.573229 2.164047 -0.404233 6.857339 1.734215 5.944352 21.552345 -0.514654 6.570676 -2.520819 -1.924544 0.250732 2.063573 -2.107353 -15.198706 -5.588781 5.573861 1.531458 -71.976890 15.022201 10.203731 -7.289304 -10.773090 -8.520616 3.273708 -3.606487 7.153671 0.828676 -1.267391 -78.105654 -68.774154 86.423028 10.773627 -12.463911 -9.373454 -11.929250 -31.211131 5.396194 16.141786 82.539223 13.199458 -0.629947 -11.236125 2.056640 -0.012198 -2.722801 -0.761881 -13.967002 -46.014461 13.406784 172.258893 77.602491 168.166025 -1.712933 -18.374400 0.607182 0.005922 -0.011188 -0.004912
-6.828316 51.023779 24.417486 179.674579 -33.834518 -9.796713 -0.583379 11.991417 2.983754 -0.398346 6.861345 1.741469 -0.474577 8.539400 2.149628 -0.401509 6.860108 1.737678 5.985898 21.566759 -0.524045 6.642232 -2.510347 -1.967339 0.259977 2.098553 -2.096551 -15.212805 -5.558269 5.589312 1.501691 -72.013977 15.057036 10.217547 -7.291233 -10.797322 -8.513862 3.306306 -3.581717 7.170462 0.810221 -1.267470 -77.870757 -68.763620 86.162067 10.745555 -12.480355 -9.436872 -11.951023 -31.100452 5.166830 16.797088 82.551514 13.941010 -0.530683 -12.115482 2.245413 -0.019151 -1.680089 -0.865133 -13.877281 -46.129007 13.343230 171.964262 77.614387 167.904198 -1.766670 -18.353531 0.610018 0.013254 -0.003333 -0.005388
-6.831874 51.017940 24.427481 179.678176 -33.775376 -9.704709 -0.612620 12.008795 2.921029 -0.392519 6.861356 1.749390 -0.463090 8.558494 2.171141 -0.415970 6.803578 1.706916 5.985198 21.545729 -0.547052 6.753235 -2.474053 -2.005983 0.270165 2.134259 -2.087577 -15.222139 -5.549058 5.601353 1.486181 -72.032929 15.069045 10.248362 -7.321248 -10.820303 -8.505727 3.343896 -3.553265 7.178552 0.788247 -1.271553 -77.735252 -68.777830 86.005258 10.695756 -12.447986 -9.513005 -12.020736 -30.990887 4.957692 18.616916 82.586417 15.788102 -0.562666 -12.956057 2.273302 -0.021378 -0.902583 -0.819739 -13.763742 -46.214977 13.197863 171.561837 77.621994 167.542655 -1.844955 -18.329525 0.610799 0.025963 -0.002131 -0.001043
-6.823769 51.013898 24.441521 179.674778 -33.697028 -9.678090 -0.615532 12.015559 2.933075 -0.387455 6.855991 1.757934 -0.451990 8.571575 2.194064 -0.395749 6.838647 1.744437 5.978852 21.487287 -0.625846 6.810236 -2.489652 -2.051817 0.242258 2.078171 -2.144716 -15.230452 -5.540925 5.611070 1.623188 -72.005819 14.952154 10.252696 -7.400085 -10.871541 -8.538184 3.283157 -3.569716 7.166505 0.739656 -1.307385 -77.587727 -68.772230 85.852462 10.636366 -12.382405 -9.610192 -12.142031 -30.888947 4.907718 20.601619 82.559163 17.788994 -0.687380 -13.717907 2.153802 0.007231 -0.299379 -0.671985 -13.714715 -46.307596 13.153748 171.064839 77.625531 167.099663 -1.920113 -18.307423 0.615012 0.020312 0.003802 -0.010702
-6.810049 51.010720 24.459769 179.670422 -33.593274 -9.684997 -0.602944 12.005607 2.984498 -0.383881 6.845295 1.766867 -0.466409 8.523070 2.179065 -0.363737 6.881231 1.790143 5.996854 21.467675 -0.671312 6.866745 -2.495752 -2.096255 0.225005 2.071786 -2.173001 -15.240981 -5.534174 5.613528 1.780047 -72.049525 14.804476 10.264346 -7.359058 -10.892459 -8.565792 3.273086 -3.566378 7.171119 0.726925 -1.315863 -77.527324 -68.802009 85.782055 10.575979 -12.303165 -9.734296 -12.289286 -30.837214 4.959059 22.035220 82.516603 19.241662 -0.790635 -14.309796 1.940774 0.042606 0.103607 -0.479320 -13.721246 -46.417304 13.175729 170.481935 77.623905 166.569170 -2.009210 -18.286059 0.616546 0.002034 0.012747 -0.026147
-6.794472 51.008897 24.480895 179.675681 -33.469923 -9.711043 -0.584694 11.985955 3.055276 -0.383414 6.830481 1.775280 -0.456647 8.522247 2.203070 -0.395056 6.819642 1.760228 6.143902 21.531146 -0.646483 6.847340 -2.529686 -2.136832 0.244174 2.112960 -2.156780 -15.264754 -5.525420 5.604245 1.938179 -72.099631 14.663863 10.260762 -7.368619 -10.911598 -8.569503 3.311655 -3.539004 7.182125 0.712827 -1.322619 -77.468754 -68.825115 85.711792 10.511745 -12.211185 -9.873864 -12.468153 -30.840197 5.077102 22.899182 82.471336 20.109671 -0.831240 -14.716781 1.680505 0.062425 0.338724 -0.284189 -13.786954 -46.536884 13.245826 169.849500 77.619726 165.970788 -2.111170 -18.267801 0.613999 -0.018432 0.027317 -0.038673
